# File created by Blade
# Date/Time:  Wed Sep 24 20:15:16 2014
# Frame Rate: 120.000 fps
#------------------------------------------------------
:FULLY-SPECIFIED
:DEGREES
4552
root -6.572867 32.796128 -5.402132 14.916940 1.517542 -2.061839
Spine -10.636929 3.337683 -0.911344
Head -29.630909 3.386143 6.679879
LeftShoulder -14.028386 22.221542 20.213482
LeftArm 22.700113 -12.688045 -41.587571
LeftForeArm 16.520632 0.000000 22.302794
LeftHand -28.237801 -0.000000 -7.934630
LeftHandThumb1 -26.253704 0.000000 33.147579
RightShoulder -20.098281 11.498759 -32.174244
RightArm -18.464130 18.034344 36.140734
RightForeArm -38.047988 -0.000000 51.453700
RightHand -18.416577 0.000000 2.163416
RightHandThumb1 -24.326973 -0.000000 -32.862282
LeftUpLeg -12.345191 8.369807 4.943126
LeftLeg 0.683357 -0.000000 -0.000000
LeftFoot -11.077531 7.132843 -18.823359
LeftToeBase 9.803061 -0.000000 -0.000000
RightUpLeg -13.643356 -4.452176 -0.467476
RightLeg 4.158436 -0.000000 -0.000000
RightFoot -8.714475 -3.142021 -13.066972
RightToeBase 0.216562 -0.000000 -0.000000
4553
root -6.580385 32.796146 -5.398242 14.813006 1.660781 -2.091897
Spine -10.495244 3.397431 -0.941456
Head -29.913472 3.453351 6.766078
LeftShoulder -14.096433 22.057909 20.733514
LeftArm 22.480383 -13.544006 -40.785758
LeftForeArm 16.979289 -0.000000 22.335176
LeftHand -28.262187 -0.000000 -7.883629
LeftHandThumb1 -26.253704 0.000000 33.147579
RightShoulder -19.978011 11.755389 -32.608308
RightArm -17.948561 17.139634 35.500533
RightForeArm -37.747016 -0.000000 48.563583
RightHand -18.528385 0.000000 2.010195
RightHandThumb1 -24.326973 -0.000000 -32.862282
LeftUpLeg -12.296800 8.431287 4.991656
LeftLeg 0.744520 -0.000000 -0.000000
LeftFoot -11.045032 6.952087 -18.771048
LeftToeBase 9.755604 -0.000000 -0.000000
RightUpLeg -13.511063 -4.501704 -0.412008
RightLeg 4.144374 -0.000000 -0.000000
RightFoot -8.693737 -3.209907 -13.034435
RightToeBase 0.183445 -0.000000 -0.000000
4554
root -6.584863 32.795991 -5.392245 14.759530 1.762762 -2.072102
Spine -10.432671 3.524410 -1.027131
Head -30.160939 3.412797 6.810848
LeftShoulder -14.112359 21.816598 21.192690
LeftArm 22.205923 -14.324615 -39.847586
LeftForeArm 17.470362 -0.000000 22.350670
LeftHand -28.267939 0.000000 -7.964702
LeftHandThumb1 -26.253704 0.000000 33.147579
RightShoulder -20.009356 11.923202 -33.072963
RightArm -17.251765 16.359529 34.978143
RightForeArm -37.533670 -0.000000 45.705480
RightHand -18.614219 -0.000000 2.291947
RightHandThumb1 -24.326973 -0.000000 -32.862282
LeftUpLeg -12.250475 8.439760 4.989868
LeftLeg 0.735245 -0.000000 -0.000000
LeftFoot -10.985721 6.844373 -18.758502
LeftToeBase 9.737721 -0.000000 -0.000000
RightUpLeg -13.429822 -4.502643 -0.418384
RightLeg 4.140368 -0.000000 -0.000000
RightFoot -8.698578 -3.350058 -13.123588
RightToeBase 0.227204 -0.000000 -0.000000
4555
root -6.585551 32.797678 -5.389963 14.710353 1.868331 -2.060396
Spine -10.351866 3.632224 -1.074109
Head -30.470333 3.451784 6.811766
LeftShoulder -14.126997 21.445590 21.687102
LeftArm 21.836680 -14.984670 -38.995129
LeftForeArm 17.916938 -0.000000 22.378313
LeftHand -28.286666 -0.000000 -7.869240
LeftHandThumb1 -26.253704 0.000000 33.147579
RightShoulder -20.004383 12.114210 -33.533465
RightArm -16.579211 15.509599 34.435268
RightForeArm -37.113065 -0.000000 42.770729
RightHand -18.262840 -0.000000 2.302018
RightHandThumb1 -24.326973 -0.000000 -32.862282
LeftUpLeg -12.214021 8.406193 4.993637
LeftLeg 0.722413 -0.000000 -0.000000
LeftFoot -10.919156 6.785518 -18.719898
LeftToeBase 9.705661 -0.000000 -0.000000
RightUpLeg -13.361096 -4.528007 -0.427708
RightLeg 4.135332 -0.000000 -0.000000
RightFoot -8.679296 -3.392341 -13.058732
RightToeBase 0.172294 -0.000000 -0.000000
4556
root -6.588165 32.797554 -5.386187 14.641584 1.992036 -2.043220
Spine -10.254387 3.758463 -1.134893
Head -30.761559 3.418098 6.795461
LeftShoulder -14.150431 21.306559 22.087037
LeftArm 21.650917 -15.663468 -38.039013
LeftForeArm 18.202238 -0.000000 22.392633
LeftHand -28.405480 -0.000000 -7.824779
LeftHandThumb1 -26.253704 0.000000 33.147579
RightShoulder -20.045625 12.259955 -34.033678
RightArm -15.897079 14.600479 33.997673
RightForeArm -36.572591 0.000000 39.881314
RightHand -18.529053 0.000000 2.372948
RightHandThumb1 -24.326973 -0.000000 -32.862282
LeftUpLeg -12.162438 8.338351 5.009664
LeftLeg 0.721496 -0.000000 -0.000000
LeftFoot -10.915738 6.728671 -18.790672
LeftToeBase 9.775023 -0.000000 -0.000000
RightUpLeg -13.223383 -4.459472 -0.455363
RightLeg 4.045353 -0.000000 -0.000000
RightFoot -8.624127 -3.565494 -13.067006
RightToeBase 0.197343 -0.000000 -0.000000
4557
root -6.592073 32.798824 -5.384498 14.586445 2.140686 -2.042260
Spine -10.151315 3.859161 -1.162780
Head -31.064649 3.416896 6.820529
LeftShoulder -14.154906 21.063723 22.502878
LeftArm 21.421215 -16.375575 -37.198642
LeftForeArm 18.620362 -0.000000 22.383247
LeftHand -28.312784 -0.000000 -7.627367
LeftHandThumb1 -26.253704 0.000000 33.147579
RightShoulder -20.029549 12.484906 -34.576934
RightArm -15.420948 13.727359 33.569314
RightForeArm -35.909454 -0.000000 37.132216
RightHand -18.654699 -0.000000 2.617561
RightHandThumb1 -24.326973 -0.000000 -32.862282
LeftUpLeg -12.141795 8.268897 5.042640
LeftLeg 0.738408 -0.000000 -0.000000
LeftFoot -10.862051 6.655606 -18.750711
LeftToeBase 9.726510 -0.000000 -0.000000
RightUpLeg -13.138995 -4.503393 -0.442143
RightLeg 4.023020 -0.000000 -0.000000
RightFoot -8.613095 -3.600003 -12.962748
RightToeBase 0.221481 -0.000000 -0.000000
4558
root -6.591691 32.799039 -5.383157 14.530322 2.279652 -2.000400
Spine -10.040544 3.969356 -1.228559
Head -31.402624 3.447239 6.790334
LeftShoulder -14.151069 20.870469 22.917322
LeftArm 21.242216 -16.922108 -36.319438
LeftForeArm 18.746656 -0.000000 22.280618
LeftHand -28.499525 -0.000000 -7.612547
LeftHandThumb1 -26.253704 0.000000 33.147579
RightShoulder -20.038703 12.597311 -35.074878
RightArm -14.869393 12.855569 33.210777
RightForeArm -35.090410 -0.000000 34.453482
RightHand -18.604298 -0.000000 2.703614
RightHandThumb1 -24.326973 -0.000000 -32.862282
LeftUpLeg -12.116944 8.179358 5.031133
LeftLeg 0.754744 -0.000000 -0.000000
LeftFoot -10.803969 6.595504 -18.879133
LeftToeBase 9.629404 -0.000000 -0.000000
RightUpLeg -13.070966 -4.511153 -0.477341
RightLeg 4.048971 -0.000000 -0.000000
RightFoot -8.628671 -3.758425 -12.985254
RightToeBase 0.242440 -0.000000 -0.000000
4559
root -6.591887 32.799928 -5.378024 14.477746 2.405839 -1.962122
Spine -9.943875 4.047165 -1.289851
Head -31.747314 3.527153 6.757179
LeftShoulder -14.148232 20.599397 23.350654
LeftArm 20.919769 -17.378516 -35.455844
LeftForeArm 18.909169 -0.000000 22.317430
LeftHand -28.762140 0.000000 -7.612348
LeftHandThumb1 -26.253704 0.000000 33.147579
RightShoulder -20.020404 12.726939 -35.574410
RightArm -14.406136 12.059601 32.874529
RightForeArm -34.046126 -0.000000 31.930726
RightHand -18.345536 0.000000 2.777768
RightHandThumb1 -24.326973 -0.000000 -32.862282
LeftUpLeg -12.077792 8.102027 5.015247
LeftLeg 0.737785 -0.000000 -0.000000
LeftFoot -10.750700 6.590026 -18.709250
LeftToeBase 9.644857 -0.000000 -0.000000
RightUpLeg -12.985728 -4.537597 -0.508735
RightLeg 4.040135 -0.000000 -0.000000
RightFoot -8.615979 -3.876782 -13.040888
RightToeBase 0.203731 -0.000000 -0.000000
4560
root -6.593161 32.800522 -5.376971 14.425692 2.547336 -1.941412
Spine -9.827363 4.118451 -1.310445
Head -32.116342 3.536932 6.716855
LeftShoulder -14.134728 20.495377 23.755545
LeftArm 20.728768 -17.902214 -34.705179
LeftForeArm 19.097970 -0.000000 22.213785
LeftHand -28.842838 -0.000000 -7.209554
LeftHandThumb1 -26.253704 0.000000 33.147579
RightShoulder -20.028499 12.735300 -36.079997
RightArm -13.833011 11.497946 32.660647
RightForeArm -33.083962 -0.000000 29.429734
RightHand -18.527017 0.000000 2.940373
RightHandThumb1 -24.326973 -0.000000 -32.862282
LeftUpLeg -12.064315 8.027388 5.030951
LeftLeg 0.775615 -0.000000 -0.000000
LeftFoot -10.722752 6.471428 -18.879073
LeftToeBase 9.631589 -0.000000 -0.000000
RightUpLeg -12.902950 -4.567559 -0.515486
RightLeg 4.015903 -0.000000 -0.000000
RightFoot -8.605091 -3.983519 -13.023219
RightToeBase 0.226735 -0.000000 -0.000000
4561
root -6.592154 32.801715 -5.378873 14.365311 2.689029 -1.931628
Spine -9.686502 4.208028 -1.286783
Head -32.491399 3.586198 6.579662
LeftShoulder -14.114290 20.302609 24.101887
LeftArm 20.452142 -18.143883 -33.790089
LeftForeArm 18.985314 -0.000000 22.086631
LeftHand -28.670905 -0.000000 -6.957397
LeftHandThumb1 -26.253704 0.000000 33.147579
RightShoulder -20.042016 12.868743 -36.592067
RightArm -13.332332 10.937247 32.358251
RightForeArm -32.185532 -0.000000 26.964967
RightHand -18.358868 -0.000000 3.131659
RightHandThumb1 -24.326973 -0.000000 -32.862282
LeftUpLeg -12.048009 7.936842 5.048072
LeftLeg 0.804067 -0.000000 -0.000000
LeftFoot -10.698642 6.411169 -18.895749
LeftToeBase 9.635783 -0.000000 -0.000000
RightUpLeg -12.879383 -4.705963 -0.492842
RightLeg 4.120396 -0.000000 -0.000000
RightFoot -8.651628 -4.009848 -13.027272
RightToeBase 0.247492 -0.000000 -0.000000
4562
root -6.591769 32.803244 -5.380989 14.324263 2.837583 -1.884211
Spine -9.573068 4.257751 -1.337426
Head -32.845113 3.667725 6.532531
LeftShoulder -14.067625 20.078502 24.487031
LeftArm 20.159480 -18.423433 -32.922006
LeftForeArm 19.147982 -0.000000 21.930637
LeftHand -28.695394 -0.000000 -6.999725
LeftHandThumb1 -26.253704 0.000000 33.147579
RightShoulder -19.999982 12.977867 -37.073155
RightArm -13.084691 10.226437 32.164569
RightForeArm -31.080091 -0.000000 25.056202
RightHand -19.175746 -0.000000 2.813603
RightHandThumb1 -24.326973 -0.000000 -32.862282
LeftUpLeg -12.058015 7.840372 5.028460
LeftLeg 0.842007 -0.000000 -0.000000
LeftFoot -10.639430 6.366228 -18.885637
LeftToeBase 9.621309 -0.000000 -0.000000
RightUpLeg -12.822750 -4.723349 -0.534221
RightLeg 4.127200 -0.000000 -0.000000
RightFoot -8.625689 -4.144949 -13.034209
RightToeBase 0.210689 -0.000000 -0.000000
